<svg width="1565" height="1565" viewBox="0 0 1565 1565" fill="none" xmlns="http://www.w3.org/2000/svg">
<g clip-path="url(#clip0_1_59)">
<path d="M782.5 1565C1214.66 1565 1565 1214.66 1565 782.502C1565 350.339 1214.66 0 782.5 0C350.337 0 0 350.339 0 782.502C0 1214.66 350.337 1565 782.5 1565Z" fill="url(#paint0_linear_1_59)"/>
<g clip-path="url(#clip1_1_59)">
<path d="M803.124 384.988C805.677 384.988 808.232 385.099 810.675 385.544V372.553C810.675 352.673 794.46 336.57 774.692 336.57H496.602C476.722 336.57 460.62 352.673 460.62 372.553V386.658C465.284 385.548 470.282 384.992 475.279 384.992H803.124V384.988ZM1070.77 609.768C1070.77 588.383 1055.93 570.493 1035.99 565.516V491.265C1035.99 479.254 1042.51 468.148 1052.98 462.276C1058.34 459.278 1060.25 452.51 1057.25 447.156C1054.26 441.815 1047.5 439.902 1042.14 442.894C1024.64 452.693 1013.78 471.222 1013.78 491.265V565.533C993.86 570.531 979.042 588.403 979.042 609.77V680.849H1070.78V609.768H1070.77Z" fill="white"/>
<path d="M1176.5 922.51C1194.14 922.51 1213.38 925.411 1230.92 931.618V899.165C1179.95 887.904 1141.69 842.432 1141.69 788.124V708.615H893.415L837.662 440.851C834.218 424.636 819.783 412.754 803.123 412.754C769.52 412.756 924.691 412.744 475.263 412.783C454.412 412.783 436.754 428.411 434.191 449.153L401.865 714.739L279.931 842.548C261.274 862.206 251.058 887.748 251.058 914.737C251.058 935.758 257.261 956.623 270.049 974.706C287.274 855.253 390.724 762.141 516.041 762.141C654 762.141 764.701 874.587 764.701 1010.8C764.701 1013.69 764.701 1016.58 764.479 1019.46H1023.91C1051.3 961.364 1109.95 922.51 1176.5 922.51ZM456.241 451.852C457.43 442.242 465.605 434.994 475.263 434.994H621.986V708.604H424.983L456.241 451.852ZM873.202 819.447C873.202 829.665 864.872 837.992 854.544 837.992H776.138C771.25 837.992 766.586 836.106 763.031 832.661C750.883 820.638 807.037 876.216 644.226 715.076V434.964H803.125C809.232 434.964 814.673 439.406 815.896 445.403C821.755 473.565 794.668 343.385 873.202 720.828C873.202 723.886 873.202 825.307 873.202 819.447Z" fill="white"/>
<path d="M1230.92 876.252V749.923C1230.92 727.157 1212.26 708.61 1189.49 708.61H1163.9V788.12C1163.9 830.1 1192.33 865.485 1230.92 876.252ZM516.008 911.423C461.161 911.423 416.543 956.018 416.543 1010.83C416.543 1065.68 461.161 1110.3 516.008 1110.3C570.854 1110.3 615.473 1065.68 615.473 1010.83C615.473 956.021 570.854 911.423 516.008 911.423Z" fill="white"/>
<path d="M516.04 789.905C394.211 789.905 295.144 889.08 295.144 1010.8C295.144 1132.63 394.207 1231.7 516.04 1231.7C637.873 1231.7 736.936 1132.63 736.936 1010.8C736.934 889.08 637.871 789.905 516.04 789.905ZM516.011 1132.51C448.92 1132.51 394.336 1077.92 394.336 1010.83C394.336 943.77 448.92 889.213 516.011 889.213C583.102 889.213 637.686 943.773 637.686 1010.83C637.686 1077.92 583.102 1132.51 516.011 1132.51ZM1176.5 950.274C1098.76 950.274 1035.68 1013.35 1035.68 1090.98C1035.68 1168.61 1098.76 1231.69 1176.5 1231.69C1254.02 1231.69 1317.21 1168.61 1317.21 1090.98C1317.21 1013.35 1254.02 950.274 1176.5 950.274ZM1176.46 1163.9C1136.26 1163.9 1103.54 1131.19 1103.54 1090.98C1103.54 1050.77 1136.25 1018.06 1176.46 1018.06C1216.63 1018.06 1249.31 1050.77 1249.31 1090.98C1249.31 1131.19 1216.63 1163.9 1176.46 1163.9Z" fill="white"/>
<path d="M1176.46 1040.27C1148.5 1040.27 1125.75 1063.02 1125.75 1090.98C1125.75 1118.94 1148.5 1141.69 1176.46 1141.69C1204.38 1141.69 1227.09 1118.94 1227.09 1090.98C1227.09 1063.02 1204.38 1040.27 1176.46 1040.27Z" fill="white"/>
</g>
</g>
<defs>
<linearGradient id="paint0_linear_1_59" x1="500.474" y1="-2.13537e-05" x2="1310.69" y2="1565" gradientUnits="userSpaceOnUse">
<stop stop-color="#50B748"/>
<stop offset="1" stop-color="#244621"/>
</linearGradient>
<clipPath id="clip0_1_59">
<rect width="1565" height="1565" fill="white"/>
</clipPath>
<clipPath id="clip1_1_59">
<rect width="1066.16" height="1066.16" fill="white" transform="translate(251.053 251.052)"/>
</clipPath>
</defs>
</svg>
