<svg width="2002" height="722" viewBox="0 0 2002 722" fill="none" xmlns="http://www.w3.org/2000/svg">
<g clip-path="url(#clip0_1_47)">
<path d="M15.4859 549.817C15.4859 517.281 22.525 488.342 36.6031 463.002C50.6812 437.348 70.2341 417.483 95.2619 403.404C120.602 389.014 149.228 381.818 181.138 381.818C220.244 381.818 253.719 392.142 281.562 412.79C309.406 433.438 328.02 461.594 337.405 497.259H249.183C242.613 483.493 233.227 473.013 221.026 465.817C209.138 458.622 195.529 455.024 180.2 455.024C155.485 455.024 135.463 463.628 120.133 480.834C104.804 498.041 97.139 521.035 97.139 549.817C97.139 578.599 104.804 601.593 120.133 618.8C135.463 636.006 155.485 644.609 180.2 644.609C195.529 644.609 209.138 641.012 221.026 633.816C233.227 626.621 242.613 616.14 249.183 602.375H337.405C328.02 638.04 309.406 666.196 281.562 686.844C253.719 707.179 220.244 717.346 181.138 717.346C149.228 717.346 120.602 710.307 95.2619 696.229C70.2341 681.838 50.6812 661.972 36.6031 636.632C22.525 611.291 15.4859 582.353 15.4859 549.817ZM500.11 718.285C469.138 718.285 440.669 711.089 414.703 696.698C389.05 682.308 368.558 662.285 353.229 636.632C338.212 610.666 330.704 581.571 330.704 549.348C330.704 517.124 338.212 488.186 353.229 462.533C368.558 436.879 389.05 416.857 414.703 402.466C440.669 388.075 469.138 380.88 500.11 380.88C531.082 380.88 559.395 388.075 585.048 402.466C611.014 416.857 631.349 436.879 646.053 462.533C661.07 488.186 668.578 517.124 668.578 549.348C668.578 581.571 661.07 610.666 646.053 636.632C631.037 662.285 610.702 682.308 585.048 696.698C559.395 711.089 531.082 718.285 500.11 718.285ZM500.11 645.079C526.389 645.079 547.35 636.319 562.992 618.8C578.948 601.28 586.925 578.129 586.925 549.348C586.925 520.253 578.948 497.102 562.992 479.896C547.35 462.376 526.389 453.616 500.11 453.616C473.518 453.616 452.245 462.22 436.289 479.426C420.647 496.633 412.826 519.94 412.826 549.348C412.826 578.442 420.647 601.749 436.289 619.269C452.245 636.475 473.518 645.079 500.11 645.079ZM965.689 715H885.443L751.232 511.806V715H670.987V385.572H751.232L885.443 589.705V385.572H965.689V715ZM1218.6 385.572V449.862H1131.32V715H1051.07V449.862H963.79V385.572H1218.6ZM1384.64 715L1316.13 590.643H1296.89V715H1216.64V385.572H1351.32C1377.29 385.572 1399.34 390.108 1417.49 399.181C1435.95 408.254 1449.71 420.767 1458.79 436.723C1467.86 452.365 1472.39 469.884 1472.39 489.281C1472.39 511.18 1466.14 530.733 1453.62 547.94C1441.42 565.146 1423.28 577.347 1399.19 584.543L1475.21 715H1384.64ZM1296.89 533.862H1346.63C1361.33 533.862 1372.28 530.264 1379.48 523.068C1386.99 515.873 1390.74 505.705 1390.74 492.566C1390.74 480.052 1386.99 470.197 1379.48 463.002C1372.28 455.806 1361.33 452.209 1346.63 452.209H1296.89V533.862ZM1636.33 718.285C1605.36 718.285 1576.89 711.089 1550.92 696.698C1525.27 682.308 1504.78 662.285 1489.45 636.632C1474.43 610.666 1466.92 581.571 1466.92 549.348C1466.92 517.124 1474.43 488.186 1489.45 462.533C1504.78 436.879 1525.27 416.857 1550.92 402.466C1576.89 388.075 1605.36 380.88 1636.33 380.88C1667.3 380.88 1695.62 388.075 1721.27 402.466C1747.24 416.857 1767.57 436.879 1782.27 462.533C1797.29 488.186 1804.8 517.124 1804.8 549.348C1804.8 581.571 1797.29 610.666 1782.27 636.632C1767.26 662.285 1746.92 682.308 1721.27 696.698C1695.62 711.089 1667.3 718.285 1636.33 718.285ZM1636.33 645.079C1662.61 645.079 1683.57 636.319 1699.21 618.8C1715.17 601.28 1723.15 578.129 1723.15 549.348C1723.15 520.253 1715.17 497.102 1699.21 479.896C1683.57 462.376 1662.61 453.616 1636.33 453.616C1609.74 453.616 1588.47 462.22 1572.51 479.426C1556.87 496.633 1549.05 519.94 1549.05 549.348C1549.05 578.442 1556.87 601.749 1572.51 619.269C1588.47 636.475 1609.74 645.079 1636.33 645.079ZM1887.45 653.056H1992.57V715H1807.21V385.572H1887.45V653.056Z" fill="url(#paint0_linear_1_47)"/>
<path d="M630.166 289.81H507.217L487.508 348H403.508L522.703 18.5722H615.619L734.813 348H649.875L630.166 289.81ZM609.518 227.867L568.691 107.264L528.334 227.867H609.518ZM947.536 122.75C941.592 111.801 932.988 103.51 921.726 97.8789C910.776 91.9348 897.793 88.9628 882.776 88.9628C856.81 88.9628 836.006 97.5661 820.363 114.773C804.721 131.666 796.9 154.348 796.9 182.817C796.9 213.163 805.034 236.939 821.302 254.146C837.883 271.04 860.564 279.487 889.346 279.487C909.055 279.487 925.636 274.481 939.089 264.47C952.854 254.459 962.865 240.068 969.122 221.297H867.29V162.169H1041.86V236.783C1035.91 256.805 1025.75 275.42 1011.36 292.626C997.278 309.833 979.29 323.754 957.39 334.391C935.491 345.028 910.776 350.346 883.246 350.346C850.709 350.346 821.615 343.307 795.961 329.229C770.621 314.838 750.755 294.972 736.364 269.632C722.286 244.291 715.247 215.353 715.247 182.817C715.247 150.281 722.286 121.342 736.364 96.0018C750.755 70.3484 770.621 50.4826 795.961 36.4045C821.302 22.0135 850.24 14.8181 882.776 14.8181C922.195 14.8181 955.357 24.3599 982.262 43.4435C1009.48 62.5272 1027.47 88.9628 1036.23 122.75H947.536ZM1212.07 348L1143.56 223.643H1124.32V348H1044.07V18.5722H1178.75C1204.72 18.5722 1226.78 23.1085 1244.92 32.1811C1263.38 41.2536 1277.14 53.7675 1286.22 69.7227C1295.29 85.365 1299.83 102.884 1299.83 122.281C1299.83 144.18 1293.57 163.733 1281.05 180.94C1268.85 198.146 1250.71 210.347 1226.62 217.543L1302.64 348H1212.07ZM1124.32 166.862H1174.06C1188.76 166.862 1199.71 163.264 1206.91 156.068C1214.42 148.873 1218.17 138.705 1218.17 125.566C1218.17 113.052 1214.42 103.197 1206.91 96.0018C1199.71 88.8064 1188.76 85.2086 1174.06 85.2086H1124.32V166.862ZM1463.76 351.285C1432.79 351.285 1404.32 344.089 1378.36 329.698C1352.7 315.308 1332.21 295.285 1316.88 269.632C1301.86 243.666 1294.36 214.571 1294.36 182.348C1294.36 150.124 1301.86 121.186 1316.88 95.5325C1332.21 69.8791 1352.7 49.8569 1378.36 35.466C1404.32 21.075 1432.79 13.8795 1463.76 13.8795C1494.73 13.8795 1523.05 21.075 1548.7 35.466C1574.67 49.8569 1595 69.8791 1609.71 95.5325C1624.72 121.186 1632.23 150.124 1632.23 182.348C1632.23 214.571 1624.72 243.666 1609.71 269.632C1594.69 295.285 1574.35 315.308 1548.7 329.698C1523.05 344.089 1494.73 351.285 1463.76 351.285ZM1463.76 278.079C1490.04 278.079 1511 269.319 1526.64 251.8C1542.6 234.28 1550.58 211.129 1550.58 182.348C1550.58 153.253 1542.6 130.102 1526.64 112.896C1511 95.3761 1490.04 86.6164 1463.76 86.6164C1437.17 86.6164 1415.9 95.2197 1399.94 112.426C1384.3 129.633 1376.48 152.94 1376.48 182.348C1376.48 211.442 1384.3 234.749 1399.94 252.269C1415.9 269.475 1437.17 278.079 1463.76 278.079Z" fill="url(#paint1_linear_1_47)"/>
<g clip-path="url(#clip1_1_47)">
<path d="M499 722C593.993 722 671 644.993 671 550C671 455.007 593.993 378 499 378C404.007 378 327 455.007 327 550C327 644.993 404.007 722 499 722Z" fill="url(#paint2_linear_1_47)"/>
<g clip-path="url(#clip2_1_47)">
<path d="M503.533 462.624C504.095 462.624 504.656 462.648 505.193 462.746V459.89C505.193 455.52 501.629 451.981 497.284 451.981H436.157C431.788 451.981 428.248 455.52 428.248 459.89V462.991C429.273 462.747 430.372 462.625 431.47 462.625H503.533V462.624ZM562.365 512.032C562.365 507.331 559.102 503.399 554.719 502.305V485.984C554.719 483.344 556.152 480.903 558.455 479.612C559.632 478.953 560.052 477.466 559.392 476.289C558.736 475.115 557.249 474.694 556.07 475.352C552.225 477.506 549.837 481.579 549.837 485.984V502.309C545.459 503.408 542.202 507.336 542.202 512.033V527.656H562.366V512.032H562.365Z" fill="white"/>
<path d="M585.605 580.776C589.481 580.776 593.712 581.413 597.566 582.778V575.644C586.363 573.169 577.952 563.174 577.952 551.237V533.76H523.38L511.125 474.903C510.368 471.339 507.195 468.727 503.533 468.727C496.147 468.728 530.255 468.725 431.467 468.734C426.884 468.734 423.002 472.169 422.439 476.728L415.333 535.106L388.531 563.199C384.43 567.52 382.185 573.135 382.185 579.067C382.185 583.688 383.548 588.274 386.359 592.249C390.145 565.992 412.884 545.525 440.43 545.525C470.755 545.525 495.088 570.242 495.088 600.183C495.088 600.818 495.088 601.452 495.039 602.087H552.064C558.083 589.316 570.977 580.776 585.605 580.776ZM427.286 477.321C427.547 475.209 429.344 473.616 431.467 473.616H463.718V533.757H420.415L427.286 477.321ZM518.937 558.122C518.937 560.368 517.106 562.198 514.836 562.198H497.601C496.527 562.198 495.502 561.783 494.721 561.026C492.05 558.383 504.394 570.6 468.606 535.18V473.609H503.533C504.876 473.609 506.072 474.585 506.341 475.904C507.629 482.094 501.675 453.479 518.937 536.444C518.937 537.117 518.937 559.41 518.937 558.122Z" fill="white"/>
<path d="M597.566 570.608V542.84C597.566 537.836 593.465 533.759 588.461 533.759H582.834V551.236C582.834 560.463 589.084 568.241 597.566 570.608ZM440.423 578.339C428.367 578.339 418.56 588.141 418.56 600.19C418.56 612.246 428.367 622.053 440.423 622.053C452.479 622.053 462.286 612.246 462.286 600.19C462.286 588.142 452.479 578.339 440.423 578.339Z" fill="white"/>
<path d="M440.43 551.628C413.651 551.628 391.875 573.428 391.875 600.183C391.875 626.962 413.65 648.738 440.43 648.738C467.21 648.738 488.985 626.963 488.985 600.183C488.984 573.428 467.209 551.628 440.43 551.628ZM440.423 626.935C425.676 626.935 413.678 614.937 413.678 600.19C413.678 585.449 425.676 573.457 440.423 573.457C455.171 573.457 467.169 585.449 467.169 600.19C467.169 614.937 455.171 626.935 440.423 626.935ZM585.605 586.878C568.517 586.878 554.651 600.744 554.651 617.808C554.651 634.871 568.517 648.737 585.605 648.737C602.644 648.737 616.534 634.871 616.534 617.808C616.534 600.744 602.644 586.878 585.605 586.878ZM585.595 633.836C576.758 633.836 569.568 626.646 569.568 617.808C569.568 608.969 576.758 601.779 585.595 601.779C594.425 601.779 601.609 608.969 601.609 617.808C601.609 626.646 594.426 633.836 585.595 633.836Z" fill="white"/>
<path d="M585.595 606.661C579.449 606.661 574.45 611.662 574.45 617.807C574.45 623.953 579.449 628.954 585.595 628.954C591.733 628.954 596.725 623.953 596.725 617.807C596.725 611.662 591.734 606.661 585.595 606.661Z" fill="white"/>
</g>
</g>
</g>
<defs>
<linearGradient id="paint0_linear_1_47" x1="255.146" y1="144.514" x2="246.669" y2="1082.84" gradientUnits="userSpaceOnUse">
<stop stop-color="#50B748"/>
<stop offset="1" stop-color="#244621"/>
</linearGradient>
<linearGradient id="paint1_linear_1_47" x1="550.209" y1="-222.486" x2="536.184" y2="715.711" gradientUnits="userSpaceOnUse">
<stop stop-color="#50B748"/>
<stop offset="1" stop-color="#244621"/>
</linearGradient>
<linearGradient id="paint2_linear_1_47" x1="437.008" y1="378" x2="615.1" y2="722" gradientUnits="userSpaceOnUse">
<stop stop-color="#50B748"/>
<stop offset="1" stop-color="#244621"/>
</linearGradient>
<clipPath id="clip0_1_47">
<rect width="2002" height="722" fill="white"/>
</clipPath>
<clipPath id="clip1_1_47">
<rect width="344" height="344" fill="white" transform="translate(327 378)"/>
</clipPath>
<clipPath id="clip2_1_47">
<rect width="234.35" height="234.35" fill="white" transform="translate(382.184 433.184)"/>
</clipPath>
</defs>
</svg>
