<svg width="2454" height="480" viewBox="0 0 2454 480" fill="none" xmlns="http://www.w3.org/2000/svg">
<g clip-path="url(#clip0_1_26)">
<path d="M240 480.001C372.548 480.001 480 372.549 480 240.001C480 107.452 372.548 0 240 0C107.452 0 0 107.452 0 240.001C0 372.549 107.452 480.001 240 480.001Z" fill="url(#paint0_linear_1_26)"/>
<path d="M246.324 118.079C247.107 118.079 247.891 118.113 248.64 118.25V114.265C248.64 108.168 243.667 103.229 237.604 103.229H152.311C146.214 103.229 141.275 108.168 141.275 114.265V118.592C142.706 118.251 144.238 118.081 145.771 118.081H246.324V118.079ZM328.415 187.021C328.415 180.462 323.862 174.975 317.746 173.449V150.675C317.746 146.991 319.745 143.585 322.959 141.784C324.602 140.865 325.187 138.789 324.266 137.147C323.351 135.509 321.276 134.922 319.632 135.84C314.266 138.845 310.934 144.528 310.934 150.675V173.454C304.825 174.987 300.28 180.469 300.28 187.022V208.823H328.416V187.021H328.415Z" fill="white"/>
<path d="M360.843 282.942C366.252 282.942 372.155 283.832 377.533 285.736V275.782C361.901 272.328 350.165 258.381 350.165 241.725V217.338H274.017L256.918 135.213C255.861 130.24 251.434 126.595 246.324 126.595C236.018 126.596 283.61 126.592 145.766 126.604C139.371 126.604 133.955 131.397 133.169 137.759L123.255 219.217L85.8564 258.417C80.1339 264.446 77.0006 272.28 77.0006 280.558C77.0006 287.005 78.9032 293.405 82.8253 298.951C88.1084 262.314 119.838 233.756 158.274 233.756C200.587 233.756 234.54 268.244 234.54 310.022C234.54 310.908 234.54 311.793 234.472 312.679H314.042C322.441 294.859 340.432 282.942 360.843 282.942ZM139.932 138.587C140.297 135.64 142.804 133.416 145.766 133.416H190.768V217.335H130.345L139.932 138.587ZM267.818 251.332C267.818 254.466 265.263 257.02 262.095 257.02H238.047C236.549 257.02 235.118 256.441 234.028 255.385C230.302 251.697 247.525 268.743 197.589 219.32V133.407H246.325C248.198 133.407 249.867 134.77 250.242 136.609C252.039 145.246 243.731 105.319 267.818 221.084C267.818 222.022 267.818 253.129 267.818 251.332Z" fill="white"/>
<path d="M377.533 268.755V230.009C377.533 223.026 371.811 217.337 364.828 217.337H356.978V241.724C356.978 254.599 365.698 265.452 377.533 268.755ZM158.264 279.542C141.442 279.542 127.757 293.22 127.757 310.032C127.757 326.854 141.442 340.539 158.264 340.539C175.086 340.539 188.771 326.854 188.771 310.032C188.771 293.221 175.086 279.542 158.264 279.542Z" fill="white"/>
<path d="M158.273 242.271C120.907 242.271 90.522 272.689 90.522 310.022C90.522 347.389 120.906 377.773 158.273 377.773C195.64 377.773 226.024 347.389 226.024 310.022C226.023 272.689 195.64 242.271 158.273 242.271ZM158.264 347.351C137.687 347.351 120.945 330.61 120.945 310.032C120.945 289.463 137.687 272.73 158.264 272.73C178.841 272.73 195.583 289.464 195.583 310.032C195.583 330.61 178.841 347.351 158.264 347.351ZM360.843 291.458C337 291.458 317.652 310.805 317.652 334.615C317.652 358.424 336.999 377.772 360.843 377.772C384.619 377.772 404 358.424 404 334.615C404 310.805 384.619 291.458 360.843 291.458ZM360.83 356.98C348.499 356.98 338.466 346.947 338.466 334.615C338.466 322.282 348.498 312.25 360.83 312.25C373.15 312.25 383.174 322.282 383.174 334.615C383.174 346.947 373.152 356.98 360.83 356.98Z" fill="white"/>
<path d="M360.83 319.062C352.254 319.062 345.279 326.039 345.279 334.615C345.279 343.19 352.254 350.168 360.83 350.168C369.395 350.168 376.361 343.19 376.361 334.615C376.361 326.039 369.395 319.062 360.83 319.062Z" fill="white"/>
<path d="M666.377 301.359H595.297L583.903 335H535.341L604.25 144.55H657.967L726.876 335H677.772L666.377 301.359ZM654.44 265.548L630.837 195.825L607.506 265.548H654.44ZM849.857 204.777C846.42 198.447 841.446 193.654 834.935 190.399C828.605 186.962 821.099 185.244 812.418 185.244C797.406 185.244 785.378 190.218 776.335 200.165C767.292 209.932 762.77 223.045 762.77 239.503C762.77 257.047 767.473 270.793 776.878 280.741C786.463 290.507 799.576 295.391 816.216 295.391C827.61 295.391 837.196 292.497 844.973 286.709C852.931 280.921 858.719 272.602 862.336 261.75H803.465V227.566H904.387V270.703C900.951 282.278 895.073 293.039 886.753 302.987C878.614 312.935 868.214 320.983 855.554 327.132C842.893 333.282 828.605 336.356 812.689 336.356C793.879 336.356 777.059 332.287 762.228 324.148C747.578 315.828 736.093 304.343 727.773 289.693C719.634 275.043 715.565 258.313 715.565 239.503C715.565 220.694 719.634 203.964 727.773 189.314C736.093 174.483 747.578 162.998 762.228 154.859C776.878 146.539 793.608 142.379 812.418 142.379C835.206 142.379 854.378 147.896 869.933 158.928C885.668 169.961 896.067 185.244 901.132 204.777H849.857ZM1002.79 335L963.182 263.106H952.059V335H905.667V144.55H983.53C998.541 144.55 1011.29 147.172 1021.78 152.417C1032.45 157.662 1040.41 164.897 1045.66 174.121C1050.9 183.164 1053.52 193.293 1053.52 204.506C1053.52 217.167 1049.91 228.471 1042.67 238.418C1035.62 248.366 1025.13 255.42 1011.2 259.579L1055.15 335H1002.79ZM952.059 230.279H980.817C989.317 230.279 995.648 228.199 999.807 224.04C1004.15 219.88 1006.32 214.002 1006.32 206.405C1006.32 199.171 1004.15 193.473 999.807 189.314C995.648 185.154 989.317 183.074 980.817 183.074H952.059V230.279ZM1148.3 336.899C1130.39 336.899 1113.94 332.739 1098.92 324.419C1084.09 316.1 1072.25 304.524 1063.38 289.693C1054.7 274.682 1050.36 257.861 1050.36 239.232C1050.36 220.603 1054.7 203.873 1063.38 189.042C1072.25 174.211 1084.09 162.636 1098.92 154.316C1113.94 145.996 1130.39 141.837 1148.3 141.837C1166.21 141.837 1182.57 145.996 1197.4 154.316C1212.42 162.636 1224.17 174.211 1232.67 189.042C1241.35 203.873 1245.7 220.603 1245.7 239.232C1245.7 257.861 1241.35 274.682 1232.67 289.693C1223.99 304.524 1212.24 316.1 1197.4 324.419C1182.57 332.739 1166.21 336.899 1148.3 336.899ZM1148.3 294.577C1163.49 294.577 1175.61 289.513 1184.65 279.384C1193.88 269.256 1198.49 255.872 1198.49 239.232C1198.49 222.412 1193.88 209.028 1184.65 199.08C1175.61 188.952 1163.49 183.888 1148.3 183.888C1132.93 183.888 1120.63 188.861 1111.4 198.809C1102.36 208.756 1097.84 222.231 1097.84 239.232C1097.84 256.053 1102.36 269.527 1111.4 279.655C1120.63 289.603 1132.93 294.577 1148.3 294.577ZM1305.37 239.503C1305.37 220.694 1309.44 203.964 1317.58 189.314C1325.72 174.483 1337.02 162.998 1351.49 154.859C1366.14 146.539 1382.69 142.379 1401.14 142.379C1423.75 142.379 1443.1 148.348 1459.2 160.285C1475.29 172.222 1486.05 188.5 1491.48 209.118H1440.48C1436.68 201.16 1431.25 195.101 1424.2 190.941C1417.33 186.781 1409.46 184.702 1400.6 184.702C1386.31 184.702 1374.73 189.675 1365.87 199.623C1357.01 209.57 1352.58 222.864 1352.58 239.503C1352.58 256.143 1357.01 269.437 1365.87 279.384C1374.73 289.332 1386.31 294.305 1400.6 294.305C1409.46 294.305 1417.33 292.226 1424.2 288.066C1431.25 283.906 1436.68 277.847 1440.48 269.889H1491.48C1486.05 290.507 1475.29 306.785 1459.2 318.722C1443.1 330.478 1423.75 336.356 1401.14 336.356C1382.69 336.356 1366.14 332.287 1351.49 324.148C1337.02 315.828 1325.72 304.343 1317.58 289.693C1309.44 275.043 1305.37 258.313 1305.37 239.503ZM1585.54 336.899C1567.64 336.899 1551.18 332.739 1536.17 324.419C1521.34 316.1 1509.49 304.524 1500.63 289.693C1491.95 274.682 1487.61 257.861 1487.61 239.232C1487.61 220.603 1491.95 203.873 1500.63 189.042C1509.49 174.211 1521.34 162.636 1536.17 154.316C1551.18 145.996 1567.64 141.837 1585.54 141.837C1603.45 141.837 1619.82 145.996 1634.65 154.316C1649.66 162.636 1661.42 174.211 1669.92 189.042C1678.6 203.873 1682.94 220.603 1682.94 239.232C1682.94 257.861 1678.6 274.682 1669.92 289.693C1661.24 304.524 1649.48 316.1 1634.65 324.419C1619.82 332.739 1603.45 336.899 1585.54 336.899ZM1585.54 294.577C1600.74 294.577 1612.85 289.513 1621.9 279.384C1631.12 269.256 1635.73 255.872 1635.73 239.232C1635.73 222.412 1631.12 209.028 1621.9 199.08C1612.85 188.952 1600.74 183.888 1585.54 183.888C1570.17 183.888 1557.87 188.861 1548.65 198.809C1539.6 208.756 1535.08 222.231 1535.08 239.232C1535.08 256.053 1539.6 269.527 1548.65 279.655C1557.87 289.603 1570.17 294.577 1585.54 294.577ZM1854.71 335H1808.31L1730.72 217.528V335H1684.33V144.55H1730.72L1808.31 262.564V144.55H1854.71V335ZM2000.92 144.55V181.717H1950.46V335H1904.07V181.717H1853.61V144.55H2000.92ZM2096.91 335L2057.3 263.106H2046.18V335H1999.79V144.55H2077.65C2092.66 144.55 2105.41 147.172 2115.9 152.417C2126.57 157.662 2134.53 164.897 2139.78 174.121C2145.02 183.164 2147.65 193.293 2147.65 204.506C2147.65 217.167 2144.03 228.471 2136.79 238.418C2129.74 248.366 2119.25 255.42 2105.32 259.579L2149.27 335H2096.91ZM2046.18 230.279H2074.94C2083.44 230.279 2089.77 228.199 2093.93 224.04C2098.27 219.88 2100.44 214.002 2100.44 206.405C2100.44 199.171 2098.27 193.473 2093.93 189.314C2089.77 185.154 2083.44 183.074 2074.94 183.074H2046.18V230.279ZM2242.42 336.899C2224.52 336.899 2208.06 332.739 2193.05 324.419C2178.21 316.1 2166.37 304.524 2157.51 289.693C2148.82 274.682 2144.48 257.861 2144.48 239.232C2144.48 220.603 2148.82 203.873 2157.51 189.042C2166.37 174.211 2178.21 162.636 2193.05 154.316C2208.06 145.996 2224.52 141.837 2242.42 141.837C2260.33 141.837 2276.7 145.996 2291.53 154.316C2306.54 162.636 2318.29 174.211 2326.79 189.042C2335.48 203.873 2339.82 220.603 2339.82 239.232C2339.82 257.861 2335.48 274.682 2326.79 289.693C2318.11 304.524 2306.36 316.1 2291.53 324.419C2276.7 332.739 2260.33 336.899 2242.42 336.899ZM2242.42 294.577C2257.61 294.577 2269.73 289.513 2278.78 279.384C2288 269.256 2292.61 255.872 2292.61 239.232C2292.61 222.412 2288 209.028 2278.78 199.08C2269.73 188.952 2257.61 183.888 2242.42 183.888C2227.05 183.888 2214.75 188.861 2205.53 198.809C2196.48 208.756 2191.96 222.231 2191.96 239.232C2191.96 256.053 2196.48 269.527 2205.53 279.655C2214.75 289.603 2227.05 294.577 2242.42 294.577ZM2387.6 299.189H2448.37V335H2341.21V144.55H2387.6V299.189Z" fill="url(#paint1_linear_1_26)"/>
</g>
<defs>
<linearGradient id="paint0_linear_1_26" x1="153.5" y1="-6.54939e-06" x2="402" y2="480" gradientUnits="userSpaceOnUse">
<stop stop-color="#50B748"/>
<stop offset="1" stop-color="#244621"/>
</linearGradient>
<linearGradient id="paint1_linear_1_26" x1="776.078" y1="5.5" x2="773.128" y2="548.001" gradientUnits="userSpaceOnUse">
<stop stop-color="#50B748"/>
<stop offset="1" stop-color="#244621"/>
</linearGradient>
<clipPath id="clip0_1_26">
<rect width="2454" height="480" fill="white"/>
</clipPath>
</defs>
</svg>
