<svg width="3326" height="378" viewBox="0 0 3326 378" fill="none" xmlns="http://www.w3.org/2000/svg">
<g clip-path="url(#clip0_1_36)">
<path d="M234.166 297.81H111.217L91.5077 356H7.50833L126.703 26.5722H219.619L338.813 356H253.875L234.166 297.81ZM213.518 235.867L172.691 115.264L132.334 235.867H213.518ZM551.536 130.75C545.592 119.801 536.988 111.51 525.726 105.879C514.776 99.9348 501.793 96.9628 486.776 96.9628C460.81 96.9628 440.006 105.566 424.363 122.773C408.721 139.666 400.9 162.348 400.9 190.817C400.9 221.163 409.034 244.939 425.302 262.146C441.883 279.04 464.564 287.487 493.346 287.487C513.055 287.487 529.636 282.481 543.089 272.47C556.854 262.459 566.865 248.068 573.122 229.297H471.29V170.169H645.859V244.783C639.915 264.805 629.747 283.42 615.356 300.626C601.278 317.833 583.29 331.754 561.39 342.391C539.491 353.028 514.776 358.346 487.246 358.346C454.709 358.346 425.615 351.307 399.961 337.229C374.621 322.838 354.755 302.972 340.364 277.632C326.286 252.291 319.247 223.353 319.247 190.817C319.247 158.281 326.286 129.342 340.364 104.002C354.755 78.3484 374.621 58.4826 399.961 44.4045C425.302 30.0135 454.24 22.8181 486.776 22.8181C526.195 22.8181 559.357 32.3599 586.262 51.4435C613.479 70.5272 631.468 96.9628 640.228 130.75H551.536ZM816.072 356L747.559 231.643H728.319V356H648.073V26.5722H782.754C808.72 26.5722 830.776 31.1085 848.921 40.1811C867.379 49.2536 881.144 61.7675 890.217 77.7227C899.289 93.365 903.826 110.884 903.826 130.281C903.826 152.18 897.569 171.733 885.055 188.94C872.854 206.146 854.709 218.347 830.619 225.543L906.641 356H816.072ZM728.319 174.862H778.061C792.765 174.862 803.715 171.264 810.91 164.068C818.418 156.873 822.173 146.705 822.173 133.566C822.173 121.052 818.418 111.197 810.91 104.002C803.715 96.8064 792.765 93.2086 778.061 93.2086H728.319V174.862ZM1067.76 359.285C1036.79 359.285 1008.32 352.089 982.355 337.698C956.702 323.308 936.21 303.285 920.881 277.632C905.864 251.666 898.356 222.571 898.356 190.348C898.356 158.124 905.864 129.186 920.881 103.533C936.21 77.8791 956.702 57.8569 982.355 43.466C1008.32 29.075 1036.79 21.8795 1067.76 21.8795C1098.73 21.8795 1127.05 29.075 1152.7 43.466C1178.67 57.8569 1199 77.8791 1213.71 103.533C1228.72 129.186 1236.23 158.124 1236.23 190.348C1236.23 222.571 1228.72 251.666 1213.71 277.632C1198.69 303.285 1178.35 323.308 1152.7 337.698C1127.05 352.089 1098.73 359.285 1067.76 359.285ZM1067.76 286.079C1094.04 286.079 1115 277.319 1130.64 259.8C1146.6 242.28 1154.58 219.129 1154.58 190.348C1154.58 161.253 1146.6 138.102 1130.64 120.896C1115 103.376 1094.04 94.6164 1067.76 94.6164C1041.17 94.6164 1019.9 103.22 1003.94 120.426C988.299 137.633 980.478 160.94 980.478 190.348C980.478 219.442 988.299 242.749 1003.94 260.269C1019.9 277.475 1041.17 286.079 1067.76 286.079ZM1339.45 190.817C1339.45 158.281 1346.49 129.342 1360.57 104.002C1374.65 78.3484 1394.2 58.4826 1419.23 44.4045C1444.57 30.0135 1473.19 22.8181 1505.1 22.8181C1544.21 22.8181 1577.68 33.142 1605.53 53.7899C1633.37 74.4378 1651.99 102.594 1661.37 138.259H1573.15C1566.58 124.493 1557.19 114.013 1544.99 106.817C1533.1 99.622 1519.49 96.0242 1504.17 96.0242C1479.45 96.0242 1459.43 104.628 1444.1 121.834C1428.77 139.041 1421.1 162.035 1421.1 190.817C1421.1 219.599 1428.77 242.593 1444.1 259.8C1459.43 277.006 1479.45 285.609 1504.17 285.609C1519.49 285.609 1533.1 282.012 1544.99 274.816C1557.19 267.621 1566.58 257.14 1573.15 243.375H1661.37C1651.99 279.04 1633.37 307.196 1605.53 327.844C1577.68 348.179 1544.21 358.346 1505.1 358.346C1473.19 358.346 1444.57 351.307 1419.23 337.229C1394.2 322.838 1374.65 302.972 1360.57 277.632C1346.49 252.291 1339.45 223.353 1339.45 190.817ZM1824.08 359.285C1793.1 359.285 1764.63 352.089 1738.67 337.698C1713.02 323.308 1692.52 303.285 1677.19 277.632C1662.18 251.666 1654.67 222.571 1654.67 190.348C1654.67 158.124 1662.18 129.186 1677.19 103.533C1692.52 77.8791 1713.02 57.8569 1738.67 43.466C1764.63 29.075 1793.1 21.8795 1824.08 21.8795C1855.05 21.8795 1883.36 29.075 1909.01 43.466C1934.98 57.8569 1955.32 77.8791 1970.02 103.533C1985.04 129.186 1992.54 158.124 1992.54 190.348C1992.54 222.571 1985.04 251.666 1970.02 277.632C1955 303.285 1934.67 323.308 1909.01 337.698C1883.36 352.089 1855.05 359.285 1824.08 359.285ZM1824.08 286.079C1850.35 286.079 1871.32 277.319 1886.96 259.8C1902.91 242.28 1910.89 219.129 1910.89 190.348C1910.89 161.253 1902.91 138.102 1886.96 120.896C1871.32 103.376 1850.35 94.6164 1824.08 94.6164C1797.48 94.6164 1776.21 103.22 1760.25 120.426C1744.61 137.633 1736.79 160.94 1736.79 190.348C1736.79 219.442 1744.61 242.749 1760.25 260.269C1776.21 277.475 1797.48 286.079 1824.08 286.079ZM2289.65 356H2209.41L2075.2 152.806V356H1994.95V26.5722H2075.2L2209.41 230.705V26.5722H2289.65V356ZM2542.57 26.5722V90.8623H2455.28V356H2375.04V90.8623H2287.76V26.5722H2542.57ZM2708.61 356L2640.09 231.643H2620.85V356H2540.61V26.5722H2675.29C2701.25 26.5722 2723.31 31.1085 2741.46 40.1811C2759.91 49.2536 2773.68 61.7675 2782.75 77.7227C2791.82 93.365 2796.36 110.884 2796.36 130.281C2796.36 152.18 2790.1 171.733 2777.59 188.94C2765.39 206.146 2747.24 218.347 2723.15 225.543L2799.18 356H2708.61ZM2620.85 174.862H2670.6C2685.3 174.862 2696.25 171.264 2703.44 164.068C2710.95 156.873 2714.71 146.705 2714.71 133.566C2714.71 121.052 2710.95 111.197 2703.44 104.002C2696.25 96.8064 2685.3 93.2086 2670.6 93.2086H2620.85V174.862ZM2960.3 359.285C2929.32 359.285 2900.86 352.089 2874.89 337.698C2849.24 323.308 2828.74 303.285 2813.41 277.632C2798.4 251.666 2790.89 222.571 2790.89 190.348C2790.89 158.124 2798.4 129.186 2813.41 103.533C2828.74 77.8791 2849.24 57.8569 2874.89 43.466C2900.86 29.075 2929.32 21.8795 2960.3 21.8795C2991.27 21.8795 3019.58 29.075 3045.23 43.466C3071.2 57.8569 3091.54 77.8791 3106.24 103.533C3121.26 129.186 3128.76 158.124 3128.76 190.348C3128.76 222.571 3121.26 251.666 3106.24 277.632C3091.22 303.285 3070.89 323.308 3045.23 337.698C3019.58 352.089 2991.27 359.285 2960.3 359.285ZM2960.3 286.079C2986.58 286.079 3007.54 277.319 3023.18 259.8C3039.13 242.28 3047.11 219.129 3047.11 190.348C3047.11 161.253 3039.13 138.102 3023.18 120.896C3007.54 103.376 2986.58 94.6164 2960.3 94.6164C2933.7 94.6164 2912.43 103.22 2896.48 120.426C2880.83 137.633 2873.01 160.94 2873.01 190.348C2873.01 219.442 2880.83 242.749 2896.48 260.269C2912.43 277.475 2933.7 286.079 2960.3 286.079ZM3211.42 294.056H3316.53V356H3131.17V26.5722H3211.42V294.056Z" fill="url(#paint0_linear_1_36)"/>
<g clip-path="url(#clip1_1_36)">
<path d="M1822 363C1916.99 363 1994 285.993 1994 191C1994 96.0075 1916.99 19 1822 19C1727.01 19 1650 96.0075 1650 191C1650 285.993 1727.01 363 1822 363Z" fill="url(#paint1_linear_1_36)"/>
<g clip-path="url(#clip2_1_36)">
<path d="M1826.53 103.623C1827.09 103.623 1827.66 103.648 1828.19 103.746V100.89C1828.19 96.5202 1824.63 92.9807 1820.28 92.9807H1759.16C1754.79 92.9807 1751.25 96.5202 1751.25 100.89V103.991C1752.27 103.747 1753.37 103.624 1754.47 103.624H1826.53V103.623ZM1885.37 153.032C1885.37 148.331 1882.1 144.399 1877.72 143.305V126.984C1877.72 124.344 1879.15 121.903 1881.45 120.612C1882.63 119.953 1883.05 118.465 1882.39 117.289C1881.74 116.115 1880.25 115.694 1879.07 116.352C1875.23 118.506 1872.84 122.578 1872.84 126.984V143.309C1868.46 144.407 1865.2 148.336 1865.2 153.032V168.656H1885.37V153.032H1885.37Z" fill="white"/>
<path d="M1908.61 221.775C1912.48 221.775 1916.71 222.413 1920.57 223.777V216.644C1909.36 214.168 1900.95 204.173 1900.95 192.236V174.759H1846.38L1834.13 115.903C1833.37 112.338 1830.2 109.727 1826.53 109.727C1819.15 109.727 1853.26 109.724 1754.47 109.733C1749.88 109.733 1746 113.168 1745.44 117.727L1738.33 176.105L1711.53 204.199C1707.43 208.52 1705.19 214.134 1705.19 220.067C1705.19 224.687 1706.55 229.273 1709.36 233.248C1713.15 206.991 1735.89 186.525 1763.43 186.525C1793.76 186.525 1818.09 211.241 1818.09 241.182C1818.09 241.817 1818.09 242.452 1818.04 243.086H1875.06C1881.08 230.316 1893.98 221.775 1908.61 221.775ZM1750.29 118.321C1750.55 116.208 1752.34 114.615 1754.47 114.615H1786.72V174.757H1743.42L1750.29 118.321ZM1841.94 199.121C1841.94 201.367 1840.11 203.197 1837.84 203.197H1820.6C1819.53 203.197 1818.5 202.783 1817.72 202.026C1815.05 199.383 1827.39 211.599 1791.61 176.179V114.609H1826.53C1827.88 114.609 1829.07 115.585 1829.34 116.903C1830.63 123.093 1824.68 94.4788 1841.94 177.444C1841.94 178.116 1841.94 200.409 1841.94 199.121Z" fill="white"/>
<path d="M1920.57 211.608V183.839C1920.57 178.835 1916.46 174.758 1911.46 174.758H1905.83V192.235C1905.83 201.463 1912.08 209.241 1920.57 211.608ZM1763.42 219.338C1751.37 219.338 1741.56 229.141 1741.56 241.19C1741.56 253.245 1751.37 263.053 1763.42 263.053C1775.48 263.053 1785.29 253.245 1785.29 241.19C1785.29 229.141 1775.48 219.338 1763.42 219.338Z" fill="white"/>
<path d="M1763.43 192.627C1736.65 192.627 1714.87 214.427 1714.87 241.182C1714.87 267.962 1736.65 289.737 1763.43 289.737C1790.21 289.737 1811.98 267.962 1811.98 241.182C1811.98 214.427 1790.21 192.627 1763.43 192.627ZM1763.42 267.935C1748.68 267.935 1736.68 255.937 1736.68 241.19C1736.68 226.448 1748.68 214.456 1763.42 214.456C1778.17 214.456 1790.17 226.449 1790.17 241.19C1790.17 255.937 1778.17 267.935 1763.42 267.935ZM1908.61 227.878C1891.52 227.878 1877.65 241.743 1877.65 258.807C1877.65 275.871 1891.52 289.736 1908.61 289.736C1925.64 289.736 1939.53 275.871 1939.53 258.807C1939.53 241.743 1925.64 227.878 1908.61 227.878ZM1908.6 274.835C1899.76 274.835 1892.57 267.646 1892.57 258.807C1892.57 249.969 1899.76 242.779 1908.6 242.779C1917.43 242.779 1924.61 249.969 1924.61 258.807C1924.61 267.645 1917.43 274.835 1908.6 274.835Z" fill="white"/>
<path d="M1908.59 247.661C1902.45 247.661 1897.45 252.661 1897.45 258.807C1897.45 264.953 1902.45 269.953 1908.59 269.953C1914.73 269.953 1919.73 264.953 1919.73 258.807C1919.73 252.661 1914.73 247.661 1908.59 247.661Z" fill="white"/>
</g>
</g>
</g>
<defs>
<linearGradient id="paint0_linear_1_36" x1="423.885" y1="-214.486" x2="418.781" y2="723.893" gradientUnits="userSpaceOnUse">
<stop stop-color="#50B748"/>
<stop offset="1" stop-color="#244621"/>
</linearGradient>
<linearGradient id="paint1_linear_1_36" x1="1760.01" y1="19" x2="1938.1" y2="363" gradientUnits="userSpaceOnUse">
<stop stop-color="#50B748"/>
<stop offset="1" stop-color="#244621"/>
</linearGradient>
<clipPath id="clip0_1_36">
<rect width="3326" height="378" fill="white"/>
</clipPath>
<clipPath id="clip1_1_36">
<rect width="344" height="344" fill="white" transform="translate(1650 19)"/>
</clipPath>
<clipPath id="clip2_1_36">
<rect width="234.35" height="234.35" fill="white" transform="translate(1705.18 74.1833)"/>
</clipPath>
</defs>
</svg>
