<svg width="20" height="16" viewBox="0 0 20 16" fill="none" xmlns="http://www.w3.org/2000/svg">
<g clip-path="url(#clip0_64_2)">
<path d="M4.75 1.5C4.59375 1.5 4.5 1.625 4.5 1.75V5H5H6H9.875L8.53125 1.65625C8.5 1.5625 8.40625 1.5 8.3125 1.5H4.75ZM3 1.75C3 0.8125 3.78125 0 4.75 0H8.3125C9.03125 0 9.65625 0.4375 9.9375 1.125L11.5 5H15V3.71875C15 2.96875 15.1562 2.25 15.5 1.59375L15.5625 1.4375C15.75 1.0625 16.2188 0.90625 16.5625 1.09375C16.9375 1.28125 17.0938 1.71875 16.9062 2.09375L16.8438 2.25C16.5938 2.71875 16.5 3.21875 16.5 3.71875V5H18.25C19.1875 5 20 5.8125 20 6.75V7.78125C20 8.46875 19.6562 9.125 19.125 9.5625L18.4688 10.0625C17.9688 9.75 17.375 9.5625 16.75 9.53125L18.1875 8.375C18.375 8.21875 18.5 8.03125 18.5 7.78125V6.75C18.5 6.625 18.375 6.5 18.25 6.5H15.75H11H10.9688H9.25L9.71875 6.96875C10.125 7.375 10.125 8 9.71875 8.40625L9.5625 8.5625C9.625 8.71875 9.6875 8.875 9.71875 9H10C10.5312 9 11 9.46875 11 10V10.5H13.9375C13.5 10.9375 13.1562 11.4375 12.9375 12H10H9.71875C9.6875 12.1562 9.625 12.3125 9.5625 12.4688L9.71875 12.625C10.125 13.0312 10.125 13.6562 9.71875 14.0625L9.03125 14.75C8.625 15.1562 8 15.1562 7.59375 14.75L7.4375 14.5625C7.28125 14.6562 7.125 14.7188 7 14.75V15C7 15.5625 6.53125 16 6 16H5C4.4375 16 4 15.5625 4 15V14.75C3.84375 14.7188 3.6875 14.6562 3.53125 14.5938L3.375 14.75C2.96875 15.1562 2.34375 15.1562 1.9375 14.75L1.25 14.0625C0.84375 13.6562 0.84375 13.0312 1.25 12.625L1.4375 12.4688C1.34375 12.3125 1.28125 12.1562 1.25 12.0312H1C0.4375 12.0312 0 11.5625 0 11.0312V10.0312C0 9.46875 0.4375 9.03125 1 9.03125H1.25C1.28125 8.875 1.34375 8.71875 1.4375 8.5625L1.25 8.40625C0.84375 8 0.84375 7.375 1.25 6.96875L1.9375 6.28125C2.21875 6 2.625 5.90625 3 6.03125V1.75ZM5.5 8C4.59375 8 3.78125 8.5 3.3125 9.25C2.875 10.0312 2.875 11 3.3125 11.75C3.78125 12.5312 4.59375 13 5.5 13C6.375 13 7.1875 12.5312 7.65625 11.75C8.09375 11 8.09375 10.0312 7.65625 9.25C7.1875 8.5 6.375 8 5.5 8ZM16.5 12C16.0312 12 15.625 12.25 15.4062 12.625C15.1875 13.0312 15.1875 13.5 15.4062 13.875C15.625 14.2812 16.0312 14.5 16.5 14.5C16.9375 14.5 17.3438 14.2812 17.5625 13.875C17.7812 13.5 17.7812 13.0312 17.5625 12.625C17.3438 12.25 16.9375 12 16.5 12ZM16.5 16C15.5 16 14.5938 15.5 14.0938 14.625C13.625 13.7812 13.625 12.75 14.0938 11.875C14.5938 11.0312 15.5 10.5 16.5 10.5C17.4688 10.5 18.375 11.0312 18.875 11.875C19.3438 12.75 19.3438 13.7812 18.875 14.625C18.375 15.5 17.4688 16 16.5 16Z" fill="#EF4C51"/>
</g>
<defs>
<clipPath id="clip0_64_2">
<rect width="20" height="16" fill="white"/>
</clipPath>
</defs>
</svg>
